# xmcd
#
# Track frame offsets: 
#        150
#        21825
#        33044
#        52167
#        69922
#        83332
#        101535
#        122700
#        141820
#        163961
#        191401
#        209991
#        231853
#        253743
#
# Disc length: 3599 seconds
#
# Revision: 0
# Processed by: cddbd v1.5.2PL0 Copyright (c) Steve Scherf et al.
# Submitted via: ExactAudioCopyFreeDBPlugin 1.0
#
DISCID=c20e0d0e
DTITLE=Khanh Ly_Ngoc Lan - Nhung con mat tran gian
DYEAR=1900
DGENRE=
TTITLE0=Tuoi da buon
TTITLE1=Nhung con mat tran gian
TTITLE2=Dau tinh sau
TTITLE3=Ha Trang
TTITLE4=Roi nhu da ngay ngo
TTITLE5=Nay em co nho
TTITLE6=Ha trang
TTITLE7=Cat bui
TTITLE8=Trung vuong khung cua mua thu
TTITLE9=Tinh xot xa
TTITLE10=Chieu mot minh qua pho
TTITLE11=Nhu canh vac bay
TTITLE12=Tuoi than tien
TTITLE13=Tuoi doi menh mong
EXTD=
EXTT0=
EXTT1=
EXTT2=
EXTT3=
EXTT4=
EXTT5=
EXTT6=
EXTT7=
EXTT8=
EXTT9=
EXTT10=
EXTT11=
EXTT12=
EXTT13=
PLAYORDER=
